<svg xmlns="http://www.w3.org/2000/svg" width="240" height="237.1" viewBox="0 0 240 237.1"><title>Artboard 1</title><path d="M94.2,67.4v6h9.8v5.2H94.2V90H88.6V62.2H107v5.2ZM108.2,79c0-8.9,3.5-11.5,9.5-11.5s9.5,2.6,9.5,11.5-3.5,11.3-9.5,11.3S108.2,88,108.2,79Zm13.4,0c0-4.8-1.7-6.4-3.9-6.4s-3.9,1.7-3.9,6.4,1.7,6.3,3.9,6.3S121.6,83.7,121.6,79Zm23.9-11-1.6,5.5h-2.6L137,75.1V90h-5.6V68h4.8l.8,2.7,2-1.3a9.3,9.3,0,0,1,4.9-1.6l1.6.2Zm30.6,8.1V90h-5.6V76.1a2.8,2.8,0,0,0-3.1-3.1H165V90h-5.6V76.1a2.8,2.8,0,0,0-3.1-3.1h-2.5V90h-5.6V68h5.2l.2.8,4.2-.9a11,11,0,0,1,5.5,1.2l5.7-1.2c5,0,7.1,2.5,7.1,8.3ZM94.2,109.8v6h9.8V121H94.2v11.4H88.6V104.6H107v5.2Zm32.4.6v22h-5.2l-.2-.8-4.4,1c-5.4,0-7.5-3.3-7.5-8.3V110.4h5.6v13.9c0,2.1.9,3.1,2.5,3.1l3.7-.4V110.4Zm22.2,8.1v13.9h-5.6V118.5c0-2.1-.9-3.1-2.5-3.1l-3.7.4v16.7h-5.6v-22h5.2l.2.8,4.4-1c5.4,0,7.5,3.3,7.5,8.3Zm13.1-8.3h2.4l4.2,1v4.6l-4.8-.5h-1.8c-2.7,0-3.6,1.9-3.6,6.2s.9,6.1,3.6,6.1h1.8l4.8-.5v4.6l-4.2,1h-2.4c-6.4,0-9.2-2.9-9.2-11.1S155.5,110.2,161.9,110.2Zm23.6,17.2v3.9l-5.6,1.2c-3.8,0-5.7-2.6-5.7-7.4v-9.6h-2.7v-5.2h2.8v-5.3l5.5-.8v6h5.5v5.2h-5.5v7.2c0,3.8.8,4.7,3.1,4.7h2.6Zm9.7-26.8v6.7h-6.2v-5.4Zm-.3,9.7v22h-5.6v-22Zm4.6,11c0-8.9,3.5-11.5,9.5-11.5s9.5,2.6,9.5,11.5-3.5,11.3-9.5,11.3S199.4,130.3,199.4,121.4Zm13.4,0c0-4.8-1.7-6.4-3.9-6.4s-3.9,1.7-3.9,6.4,1.7,6.3,3.9,6.3S212.8,126,212.8,121.4Zm27.2-2.9v13.9h-5.6V118.5c0-2.1-.9-3.1-2.5-3.1l-3.7.4v16.7h-5.6v-22h5.2l.2.8,4.4-1c5.4,0,7.5,3.3,7.5,8.3ZM109.1,163.3h-1.7v10.8l-3.2.7H96.6c-6.4,0-8.9-2-8.9-7.9,0-3,.9-5,2.5-6.3a8.2,8.2,0,0,1-1.5-5.4c0-5.6,2.5-8.1,7.1-8.1H100l3.1.6v4.5H96.4c-1.4,0-2.1,1.2-2.1,3s.8,3.1,1.9,3.1h1.7v5.1h-2c-1.4,0-2.5,1.6-2.5,3.2s1.2,3.1,3.3,3.1h5.3v-6.4h-1.7v-5.1h9v5.1Zm22.8-16.4h5.7l4.2,1v4.8l-4.8-.6h-3.2c-3.4,0-4.8,2.4-4.8,8.9s1.4,8.9,4.8,8.9h3.2l4.8-.5v4.7l-4.2,1h-5.7c-5.3,0-8.5-4-8.5-14S126.5,146.9,131.8,146.9Zm14.3,27.9V144.1l5.6-1.1v31.8ZM173.3,160v14.8H162.6c-4.7,0-7-2.3-7-6.7s2.3-6.9,7-6.9h2.7l2.5.5v-1.7a2.3,2.3,0,0,0-2.6-2.3h-2.5l-5.2.5v-4.6l4.9-1.1h4.4C170.2,152.7,173.3,156,173.3,160Zm-10.7,9.7h5.1v-3.3h-5.1a1.7,1.7,0,0,0-1.5,1.7A1.6,1.6,0,0,0,162.7,169.7Zm24.9-12.1h-2.4c-1.9,0-2.6.6-2.6,1.5s.4,1.5,2.6,1.7c6.8.7,8.7,2.2,8.7,7.5s-1.8,6.6-8.6,6.6h-3.6l-4.2-1v-4.6l4.8.5h3c2.7,0,3.3-.5,3.3-1.4s-.7-1.6-3.3-1.9c-6-.7-8-2.5-8-7.1s2.4-6.8,8-6.8h3.1l4.6,1v4.5Zm20,0h-2.4c-1.9,0-2.6.6-2.6,1.5s.4,1.5,2.6,1.7c6.8.7,8.7,2.2,8.7,7.5s-1.8,6.6-8.6,6.6h-3.6l-4.2-1v-4.6l4.8.5h3c2.7,0,3.3-.5,3.3-1.4s-.7-1.6-3.3-1.9c-6-.7-8-2.5-8-7.1s2.4-6.8,8-6.8h3.1l4.6,1v4.5ZM0,62.2H6.4v70.2H0Zm0,0H70.2v6.4H0ZM0,81.4H70.2v6.4H0Zm12.8,31.9h6.4v19.1H12.8Zm0,0H38.3v6.4H12.8ZM44.7,94.1h6.4v38.3H44.7Zm0,0H70.2v6.4H44.7Zm0,31.9H70.2v6.4H44.7ZM12.8,94.1h6.4v12.8H12.8Zm0,0H38.3v6.4H12.8Z" fill="#3a3a3a"/></svg>